<svg width="26" height="25" viewBox="0 0 26 25" fill="none" xmlns="http://www.w3.org/2000/svg">
<path d="M10.6562 9.09375V15.9063C10.6562 16.2969 11.0844 16.5359 11.4172 16.3328L16.5094 13.2203C16.6329 13.145 16.7349 13.0392 16.8057 12.913C16.8765 12.7869 16.9137 12.6447 16.9137 12.5C16.9137 12.3553 16.8765 12.2131 16.8057 12.087C16.7349 11.9608 16.6329 11.855 16.5094 11.7797L11.4156 8.66875C11.3399 8.62278 11.2532 8.59777 11.1646 8.59628C11.076 8.5948 10.9886 8.61688 10.9114 8.66028C10.8341 8.70368 10.7698 8.76683 10.7249 8.84327C10.6801 8.91972 10.6564 9.0067 10.6562 9.09531V9.09375ZM7.53125 4.6875C6.49525 4.6875 5.50168 5.09905 4.76911 5.83161C4.03655 6.56418 3.625 7.55775 3.625 8.59375V16.4062C3.625 17.4423 4.03655 18.4358 4.76911 19.1684C5.50168 19.9009 6.49525 20.3125 7.53125 20.3125H18.4688C19.5048 20.3125 20.4983 19.9009 21.2309 19.1684C21.9634 18.4358 22.375 17.4423 22.375 16.4062V8.59375C22.375 7.55775 21.9634 6.56418 21.2309 5.83161C20.4983 5.09905 19.5048 4.6875 18.4688 4.6875H7.53125ZM5.1875 8.59375C5.1875 7.97215 5.43443 7.37601 5.87397 6.93647C6.31351 6.49693 6.90965 6.25 7.53125 6.25H18.4688C19.0904 6.25 19.6865 6.49693 20.126 6.93647C20.5656 7.37601 20.8125 7.97215 20.8125 8.59375V16.4062C20.8125 17.0279 20.5656 17.624 20.126 18.0635C19.6865 18.5031 19.0904 18.75 18.4688 18.75H7.53125C6.90965 18.75 6.31351 18.5031 5.87397 18.0635C5.43443 17.624 5.1875 17.0279 5.1875 16.4062V8.59375Z" fill="#20356f"/>
</svg>
