<svg width="25" height="25" viewBox="0 0 25 25" fill="none" xmlns="http://www.w3.org/2000/svg">
<path d="M21.875 21.875V7.03125L14.8438 0H6.25C5.4212 0 4.62634 0.32924 4.04029 0.915291C3.45424 1.50134 3.125 2.2962 3.125 3.125V21.875C3.125 22.7038 3.45424 23.4987 4.04029 24.0847C4.62634 24.6708 5.4212 25 6.25 25H18.75C19.5788 25 20.3737 24.6708 20.9597 24.0847C21.5458 23.4987 21.875 22.7038 21.875 21.875ZM14.8438 4.6875C14.8438 5.3091 15.0907 5.90524 15.5302 6.34478C15.9698 6.78432 16.5659 7.03125 17.1875 7.03125H20.3125V21.875C20.3125 22.2894 20.1479 22.6868 19.8549 22.9799C19.5618 23.2729 19.1644 23.4375 18.75 23.4375H6.25C5.8356 23.4375 5.43817 23.2729 5.14515 22.9799C4.85212 22.6868 4.6875 22.2894 4.6875 21.875V3.125C4.6875 2.7106 4.85212 2.31317 5.14515 2.02015C5.43817 1.72712 5.8356 1.5625 6.25 1.5625H14.8438V4.6875Z" fill="#20356f"/>
<path d="M7.19283 22.011C6.88829 21.8892 6.64293 21.6539 6.50846 21.3547C6.20377 20.7485 6.30533 20.1422 6.63346 19.6328C6.94283 19.1531 7.45533 18.7453 8.03502 18.4031C8.7693 17.9867 9.54547 17.6489 10.3506 17.3953C10.9759 16.2713 11.5302 15.1091 12.01 13.9157C11.7231 13.2637 11.4982 12.5863 11.3381 11.8922C11.2038 11.2672 11.1522 10.6485 11.2663 10.1172C11.3835 9.56409 11.6944 9.06721 12.2819 8.83127C12.5819 8.71096 12.9069 8.64377 13.2225 8.71096C13.3813 8.74476 13.5305 8.81347 13.6595 8.91212C13.7884 9.01076 13.8937 9.13686 13.9678 9.28127C14.1053 9.53752 14.1553 9.83752 14.1663 10.1219C14.1772 10.4156 14.1475 10.7406 14.0928 11.0813C13.9616 11.8781 13.671 12.8531 13.2803 13.8844C13.7114 14.8063 14.2239 15.6879 14.8116 16.5188C15.5071 16.4638 16.2065 16.4901 16.896 16.5969C17.4647 16.7 18.0428 16.9016 18.396 17.3235C18.5835 17.5485 18.6975 17.8235 18.7085 18.1328C18.7194 18.4328 18.635 18.7297 18.4928 19.0125C18.3697 19.2746 18.1787 19.499 17.9397 19.6625C17.7035 19.8166 17.4245 19.8921 17.1428 19.8782C16.6256 19.8563 16.121 19.5719 15.685 19.2266C15.1549 18.7883 14.6773 18.2902 14.2616 17.7422C13.2049 17.8621 12.1608 18.0744 11.1413 18.3766C10.6744 19.2046 10.1414 19.9937 9.54752 20.736C9.09127 21.2828 8.59596 21.761 8.09908 21.9657C7.81359 22.0948 7.48978 22.111 7.19283 22.011V22.011ZM9.34752 19.0406C9.08814 19.1594 8.84752 19.2844 8.63033 19.4125C8.11783 19.7156 7.78502 20.011 7.61939 20.2672C7.47252 20.4938 7.46939 20.6578 7.55689 20.8313C7.57252 20.8656 7.58814 20.8875 7.59752 20.9C7.61616 20.8951 7.63443 20.8888 7.65221 20.8813C7.86627 20.7938 8.20689 20.5141 8.64439 19.9875C8.89321 19.6829 9.12784 19.3669 9.34752 19.0406V19.0406ZM11.91 16.9625C12.4318 16.8408 12.9582 16.7402 13.4881 16.661C13.2036 16.2256 12.9378 15.7783 12.6913 15.3203C12.4462 15.8744 12.1857 16.4215 11.91 16.961V16.9625ZM15.7319 17.6656C15.9663 17.9203 16.1944 18.1344 16.4116 18.3063C16.7866 18.6031 17.0475 18.7016 17.1897 18.7063C17.2278 18.7113 17.2664 18.703 17.2991 18.6828C17.3641 18.6315 17.4147 18.5642 17.446 18.4875C17.5015 18.3923 17.5331 18.2851 17.5381 18.175C17.5372 18.1383 17.5228 18.1032 17.4975 18.0766C17.4163 17.9797 17.185 17.8391 16.6881 17.75C16.3721 17.6972 16.0523 17.6695 15.7319 17.6672V17.6656ZM12.6225 12.1875C12.754 11.7633 12.8584 11.3312 12.935 10.8938C12.9835 10.6 13.0022 10.3578 12.9944 10.1672C12.9948 10.062 12.9779 9.95752 12.9444 9.85784C12.8662 9.86751 12.7899 9.88857 12.7178 9.92034C12.5819 9.97502 12.471 10.086 12.4116 10.3625C12.3491 10.6625 12.3647 11.0953 12.4835 11.6469C12.521 11.8203 12.5678 12.0016 12.6241 12.1875H12.6225Z" fill="#20356f"/>
</svg>
