<svg width="18" height="18" viewBox="0 0 18 18" fill="none" xmlns="http://www.w3.org/2000/svg">
<path d="M4.5 1C2.57 1 1 2.57 1 4.5C1 6.43 2.57 8 4.5 8C6.43 8 8 6.43 8 4.5C8 2.57 6.43 1 4.5 1ZM4.5 6C3.67 6 3 5.33 3 4.5C3 3.67 3.67 3 4.5 3C5.33 3 6 3.67 6 4.5C6 5.33 5.33 6 4.5 6ZM13.5 10C11.57 10 10 11.57 10 13.5C10 15.43 11.57 17 13.5 17C15.43 17 17 15.43 17 13.5C17 11.57 15.43 10 13.5 10ZM13.5 15C12.67 15 12 14.33 12 13.5C12 12.67 12.67 12 13.5 12C14.33 12 15 12.67 15 13.5C15 14.33 14.33 15 13.5 15ZM16.29 1.71C16.68 2.1 16.68 2.73 16.29 3.12L3.12 16.29C3.02742 16.3826 2.91751 16.456 2.79654 16.5061C2.67558 16.5562 2.54593 16.582 2.415 16.582C2.28407 16.582 2.15442 16.5562 2.03346 16.5061C1.91249 16.456 1.80258 16.3826 1.71 16.29C1.61742 16.1974 1.54398 16.0875 1.49387 15.9665C1.44377 15.8456 1.41798 15.7159 1.41798 15.585C1.41798 15.4541 1.44377 15.3244 1.49387 15.2035C1.54398 15.0825 1.61742 14.9726 1.71 14.88L14.88 1.71C14.9725 1.6173 15.0824 1.54375 15.2034 1.49357C15.3243 1.44339 15.454 1.41756 15.585 1.41756C15.716 1.41756 15.8457 1.44339 15.9666 1.49357C16.0876 1.54375 16.1975 1.6173 16.29 1.71V1.71Z" fill="#5AC259"/>
</svg>
