<svg width="16" height="16" viewBox="0 0 16 16" fill="none" xmlns="http://www.w3.org/2000/svg">
<g clip-path="url(#clip0_424_3731)">
<path d="M5.87301 9.94655L9.94634 2.58855C10.0023 2.48722 10.0583 2.38722 10.109 2.28255C10.155 2.18788 10.1937 2.09255 10.219 1.98922C10.2723 1.77188 10.2577 1.54522 10.175 1.33788C10.0943 1.1339 9.94913 0.96185 9.76167 0.847884C9.57745 0.736155 9.36057 0.690756 9.14701 0.719218C8.93367 0.747884 8.73834 0.848551 8.58434 1.00588C8.51101 1.07922 8.45101 1.16255 8.39567 1.25122C8.33434 1.34855 8.27901 1.44988 8.22301 1.55122L7.96567 2.01588L7.70767 1.55055C7.65167 1.44988 7.59634 1.34855 7.53501 1.25122C7.48112 1.16269 7.41787 1.08022 7.34634 1.00522C7.1961 0.849571 6.99796 0.748859 6.78367 0.719218C6.57033 0.690967 6.35373 0.736356 6.16967 0.847884C5.98225 0.961888 5.83713 1.13392 5.75634 1.33788C5.67334 1.54492 5.65794 1.7729 5.71234 1.98922C5.73767 2.09255 5.77634 2.18788 5.82167 2.28255C5.87234 2.38722 5.92834 2.48722 5.98434 2.58855L6.81634 4.09122L3.57501 9.94588H1.35301C1.24167 9.94588 1.12967 9.94588 1.01834 9.95255C0.917006 9.95855 0.81834 9.97122 0.719673 9.99988C0.513006 10.0599 0.331673 10.1866 0.201006 10.3652C0.0704725 10.5451 0.000119884 10.7616 1.53078e-07 10.9838C-0.000119578 11.206 0.0699997 11.4226 0.20034 11.6026C0.331673 11.7812 0.51234 11.9072 0.719673 11.9679C0.81834 11.9966 0.917006 12.0092 1.01834 12.0152C1.12967 12.0219 1.24167 12.0219 1.35367 12.0219H10.085C10.1117 11.9636 10.134 11.9035 10.1517 11.8419C10.4283 10.8979 9.74101 9.94588 8.79501 9.94588L5.87301 9.94655ZM2.07567 12.3612L1.54767 13.3612C1.49301 13.4652 1.43767 13.5679 1.38834 13.6752C1.34265 13.7718 1.30691 13.8727 1.28167 13.9766C1.22818 14.1986 1.24305 14.4317 1.32434 14.6452C1.40501 14.8572 1.54701 15.0339 1.72901 15.1486C1.91034 15.2632 2.12167 15.3099 2.32967 15.2799C2.53901 15.2506 2.72967 15.1479 2.88034 14.9866C2.95234 14.9099 3.01101 14.8252 3.06567 14.7346C3.12567 14.6346 3.17967 14.5306 3.23434 14.4266L4.00034 12.9759C3.94034 12.8759 3.36901 11.9959 2.07567 12.3612V12.3612ZM15.7997 10.3572C15.6711 10.1832 15.4885 10.0566 15.2803 9.99722C15.1829 9.97034 15.0827 9.95446 14.9817 9.94988C14.8697 9.94322 14.7583 9.94322 14.6463 9.94322H12.4323L9.50567 4.73322C9.12168 5.13636 8.87121 5.64801 8.78834 6.19855C8.68116 6.88718 8.80941 7.59184 9.15234 8.19855L12.6683 14.4606C12.7243 14.5606 12.7797 14.6606 12.841 14.7566C12.897 14.8432 12.957 14.9252 13.0297 14.9992C13.1837 15.1539 13.379 15.2526 13.593 15.2812C13.8063 15.3092 14.0217 15.2652 14.2077 15.1546C14.3947 15.0427 14.5401 14.8727 14.6217 14.6706C14.705 14.4659 14.719 14.2426 14.6657 14.0279C14.6394 13.9278 14.6026 13.8308 14.5557 13.7386C14.5057 13.6352 14.449 13.5366 14.393 13.4366L13.5823 11.9926H14.6463C14.7583 11.9926 14.8697 11.9926 14.9817 11.9866C15.083 11.9806 15.1817 11.9679 15.2803 11.9399C15.4888 11.8805 15.6717 11.7536 15.8003 11.5792C15.9307 11.4023 16.0008 11.1883 16.0003 10.9686C16.0008 10.7488 15.9307 10.5348 15.8003 10.3579L15.7997 10.3572Z" fill="#19A5D3"/>
</g>
<defs>
<clipPath id="clip0_424_3731">
<rect width="16" height="16" fill="white"/>
</clipPath>
</defs>
</svg>
