<svg width="16" height="16" viewBox="0 0 16 16" fill="none" xmlns="http://www.w3.org/2000/svg">
<path d="M1.5 1.85916V14.1404C1.50008 14.1671 1.50803 14.1931 1.52284 14.2152C1.53766 14.2374 1.55868 14.2547 1.58328 14.2649C1.60788 14.2751 1.63495 14.2779 1.66111 14.2728C1.68726 14.2677 1.71134 14.2551 1.73031 14.2363L8.125 8.00009L1.73031 1.76322C1.71134 1.74451 1.68726 1.73182 1.66111 1.72674C1.63495 1.72166 1.60788 1.72442 1.58328 1.73466C1.55868 1.74491 1.53766 1.76219 1.52284 1.78434C1.50803 1.80648 1.50008 1.83251 1.5 1.85916V1.85916ZM10.8062 5.43759L2.78813 1.02009L2.78312 1.01728C2.645 0.942281 2.51375 1.12916 2.62687 1.23791L8.91219 7.24791L10.8062 5.43759ZM2.6275 14.7623C2.51375 14.871 2.645 15.0579 2.78375 14.9829L2.78875 14.9801L10.8062 10.5626L8.91219 8.75166L2.6275 14.7623ZM14.0431 7.21884L11.8041 5.98572L9.69875 8.00009L11.8041 10.0135L14.0431 8.78134C14.6522 8.44478 14.6522 7.55541 14.0431 7.21884Z" fill="#19A5D3"/>
</svg>
